<svg clip-rule="evenodd" fill-rule="evenodd" stroke-linejoin="round" stroke-miterlimit="2" viewBox="0 0 769 166" xmlns="http://www.w3.org/2000/svg"><path d="m0 0h768.341v165.412h-768.341z" fill="none"/><path d="m444.057 95.655c.111 5.58-4.58 11.026-7.054 10.835-.557-.043-24.779-.597-24.116 21.537.607 20.241 18.848 21.434 22.599 21.23 19.18-1.043 21.431-17.182 21.449-19.542 13.106 14.422 32.52 18.879 40.061 18.879 13.187 0 39.919-16.51 39.919-16.51s26.325 16.51 41.423 16.51c16.181 0 38.921-13.823 38.921-13.823l22.484 13.525 24.539-9.59 24.83 9.888 24.568-13.563s18.654 13.563 24.803 13.563c15.567 0 23.5-9.407 23.5-20.167v-41.737c0-23.981-18.149-44.464-47.352-44.464-11.759 0-20.831 4.488-25.6 7.509-4.768-3.056-13.715-7.509-25.436-7.509-14.852 0-37.167 12.198-39.617 26.631-9.212-15.633-26.222-26.141-45.64-26.141-15.24 0-40.852 14.953-40.852 14.953s-27.685-14.953-40.49-14.953c-29.19 0-53.521 23.755-52.939 52.939zm71.615-.254c0-4.201-15.603-12.351-18.676-12.351-6.95 0-12.605 5.655-12.605 12.605s5.655 12.606 12.605 12.606c3.163 0 18.676-8.658 18.676-12.86zm62.666-12.351c6.952 0 12.607 5.655 12.607 12.605s-5.655 12.605-12.607 12.605c-6.95 0-12.605-5.655-12.605-12.605s5.655-12.605 12.605-12.605z" fill="#fcf6de"/><g fill-rule="nonzero"><path d="m493.892 147.043c-34.072.726-47.996-45.899-47.996-45.899s18.641 3.627 19.784 22.522c.167 2.757 14.704 11.881 31.316 12.262 23.933.55 38.976-17.718 38.976-17.718s-2.784 27.995-42.08 28.833zm-42.181-23.707s5.818 23.904-15.468 23.201c-22.661-.748-18.874-16.329-18.874-16.329s2.561 7.817 16.381 7.283c13.177-.51 17.961-14.155 17.961-14.155zm75.864-27.926c14.061-14.701 13.554-39.141 14.836-37.678 9.002 10.273 6.674 22.561 1.587 29.991-1.79 2.615-3.998 4.825-6.327 6.536-.149.107-.234.282-.228.466.007.183.104.352.26.449 3.674 2.343 7.102 5.985 9.33 10.549 2.624 5.375 3.585 12.029 1.321 19.346 8.138 6.778 18.592 10.858 29.984 10.858 24.761 0 45.824-22.996 47.54-47.326 10.974 10.575-7.891 58.583-47.539 56.763-44.843-2.057-36.473-30.484-50.764-49.954zm111.484 49.676c-22.847-.682-18.959-13.166-8.251-38.997 8.224-19.836-9.366-38.878-2.936-44.512 4.952-4.338 13.872 21.937 13.872 35.117 0 12.926-4.551 25.435-11.836 35.024-.167.217-.235.494-.188.763.048.27.206.507.437.654 2.879 1.844 5.418 2.495 9.756 2.495 10.142 0 18.366-6.344 18.366-14.167 0 0 4.892 24.342-19.22 23.623zm49.959-9.159c-9.843 0-17.824-6.343-17.824-14.166 0 0-5.569 22.5 17.824 22.5 24.237 0 17.824-22.5 17.824-22.5 0 7.823-7.981 14.166-17.824 14.166zm49.837 0c-9.843 0-17.824-6.343-17.824-14.166 0 0-8.321 22.5 17.824 22.5 24.85 0 17.824-22.5 17.824-22.5 0 7.823-7.981 14.166-17.824 14.166zm-160.517-63.877c-18.515.056-19.797 19.675-17.594 23.243 1.578-8.672 8.474-16.577 17.594-16.577 9.122 0 16.436 8.272 18.014 16.944 1.763-2.143 2.051-23.671-18.014-23.61zm-69.117 4.58c-3.381-2.952-7.734-4.874-12.225-4.58-16.684 1.091-19.638 20.048-17.609 21.79 3.191-5.718 13.888-18.472 27.368-10.93 22.667 12.684 31.577-8.915 26.736-15.103-1.924 7.568-16.011 16.032-24.27 8.823zm161.741 15.106s2.73-14.916-6.367-14.925c-9.638-.009-6.708 15.045-6.708 15.045zm49.06-.166c1.763-1.15 1.742-14.759-6.086-14.759s-7.924 9.443-6.416 14.514z" fill="#ded8c0"/><path d="m339.895 60.949-37.088 40.826c-6.511 6.979-8.513 17.04-5.172 25.979 3.335 8.921 10.418 15.194 19.882 16.21 2.02.258 53.174 6.754 67.825 7.111 15.742.384 24.835-9.629 26.179-22.43 1.453-13.822-7.575-26.206-21.4-27.657l-17.067-1.796 38.089-40.827c6.51-6.976 8.513-17.039 5.171-25.979s-11.453-15.22-20.945-16.216c.002 0-63.654-6.692-63.654-6.692-13.829-1.447-26.209 8.576-27.66 22.399-1.453 13.823 8.575 26.207 22.398 27.658z" fill="#abfdd7"/><path d="m298.289 132.325c-.933-1.457-1.721-3.026-2.342-4.687-3.292-8.807-1.328-18.715 5.071-25.601.014-.015 1.018-1.068 1.018-1.068 1.478-1.551 2.281-3.624 2.234-5.766-.167-7.661-1.386-63.481-1.386-63.481-.3-13.895-10.794-24.921-24.71-24.612-13.896.305-23.24 11.867-22.938 25.763 0 0 .303 90.424.303 90.424.141 6.504 2.21 12.638 6.32 17.148 4.155 4.562 10.429 7.659 19.389 7.463 7.272-.158 12.664-2.329 16.546-5.575l.135-.117c2.829-2.513 2.404-6.711.36-9.891z" fill="#c6ea84"/><path d="m254.204 94.918.032-.758-.557-60.804c-.041-1.877.203-5.076.55-6.844.607-2.989-.261-5.205-2.502-7.203-3.95-3.431-8.79-5.686-14.028-6.237-13.839-1.46-25.559 8.884-27.013 22.741 0-.002-5.838 55.51-5.838 55.51-.142.787-1.766 8.514-10.404 7.605-2.812-.296-4.765-1.124-6.041-2.338-2.47-2.35-2.317-5.73-2.285-6.184.003-.035 5.892-56.062 5.892-56.062 1.447-13.782-8.8-26.532-22.581-27.979-13.823-1.447-26.483 8.455-27.934 22.258 0 .001-1.129 10.744-1.511 14.41-.2 1.905.143 3.833.989 5.557 5.488 11.288 8.038 24.193 6.736 37.596-.782 8.046-2.891 15.755-6.189 22.882-1.141 2.437-1.16 5.279-.041 7.756 7.059 15.389 21.151 30.132 47.874 32.177 49.843 3.815 62.969-36.149 64.608-51.763 0 .001.243-2.32.243-2.32z" fill="#ffc679"/><path d="m100.248 146.67 2.277 2.851c4.942 6.185 21.346 14.097 35.138 4.131 11.33-8.188 12.912-24.625 4.189-35.545l-3.292-4.393c2.28-7.057 5.885-8.335 8.238-26.491 4.521-34.876-23.589-74.75-62.554-78.536-38.965-3.789-73.745 24.832-77.534 63.798v.002c-1.831 18.875 3.793 37.333 15.844 51.976 12.083 14.684 29.148 24.238 48.116 25.568 14.541 1.019 22.451-.727 29.578-3.361zm-4.214-70.815c-5.527-.027-11.099 1.769-15.756 5.49-5.982 4.778-9.202 11.727-9.438 18.819-3.669-.854-7.068-3.355-9.648-6.514-3.574-4.378-5.683-10.184-4.494-15.589 2.347-10.676 9.944-19.375 20.658-19.375.67 0 1.345.034 2.025.099 9.196.895 14.068 7.839 16.653 17.07z" fill="#ffa7a0"/><path d="m387.515 136.85c-.668 0-69.309-7.18-69.309-7.18-14.639-1.977-17.007-15.768-17.164-16.35-2.433 4-2.517 10.523-1.087 14.352 2.547 6.808 11.788 12.89 19.016 13.648 0 0 67.393 7.153 70.417 6.758 26.71-3.497 18.044-24.643 17.442-26.865-1.591 12.008-10.643 15.637-19.315 15.637zm-60.435-81.615 23.48 3.085s3.616-3.863 5.403-5.771c.185-.198.243-.484.15-.739-.094-.255-.323-.435-.593-.466-6.073-.697-29.578-3.396-29.578-3.396-8.098-.85-14.276-8.911-16.529-18.84-.26.967-7.158 21.384 17.667 26.127z" fill="#92e3be"/><path d="m286.039 131.333c.135.292.136.628.003.922-.132.293-.385.515-.694.607-17.732 5.34-25.326-13.088-25.54-22.87 0 0-6.158 37.296 21.784 35.427 28.823-1.928 8.136-13.989 11.553-30.558 1.927-9.347 10.323-25.178 9.134-24.573-28.82 14.662-18.96 35.903-16.24 41.045z" fill="#a9cd69"/><path d="m251.714 21.851c-30.816-28.846 26.205 108.327-55.427 113.767-20.096 1.339-34.599-10.107-42.922-20.362-.538-.671-.628-1.597-.229-2.359 15.383-29.734 6.261-69.033-9.66-76.615-4.809-2.29 13.012 43.505 2.345 63.932-11.338 21.714 14.437 45.821 44.209 47.706 33.916 2.147 51.411-16.98 58.682-34.955 4.677-11.562 6.217-88.105 3.002-91.114z" fill="#e7b064"/><path d="m141.066 127.044s-2.728 17.412-18.865 17.603c-9.887.117-16.983-8.968-19.254-12.307-.459-.697-1.344-.977-2.12-.671-7.393 2.882-15.279 4.501-23.332 4.353-17.612-.323-39.277-10.298-50.309-23.705-8.588-10.435-14.182-27.779-15.195-40.982-5.628 11.023 1.552 40.38 12.287 53.425 11.032 13.407 32.533 23.982 53.059 23.864 9.135-.052 22.009-3.588 23.41-3.209 1.376.372 13.821 11.042 25.722 8.599 16.903-3.471 18.288-18.818 14.597-26.97zm1.824-53.451c-1.007 10.374-8.094 28.61-13.757 37.62-.284.439-.22 1.018.153 1.384 1.203 1.182 3.682 3.617 3.682 3.617 14.128-16.646 9.922-42.621 9.922-42.621zm-40.685 8.723c4.39 3.843.318-37.555-26.917-34.378-27.985 3.265-27.628 32.881-23.433 37.176 6.133-13.489 7.196-25.972 25.047-27.445 18.317-1.51 25.303 24.647 25.303 24.647z" fill="#e38e87"/></g><path d="m411.698 146.565c.464-.554 1.143-.882 1.866-.902.722-.02 1.419.27 1.913.797 4.871 4.916 12.013 7.83 19.836 7.809 4.998-.013 15.566-2.22 21.851-9.914 1.006-1.259 2.834-1.481 4.113-.5 10.572 7.921 23.282 11.616 34.719 11.406 21.977-.403 35.445-8.994 40.531-16.661.838-1.263 1.744-.204 2.397.399 10.422 9.476 24.256 15.262 39.414 15.262 13.346 0 25.664-4.484 35.525-12.023.619-.478 1.508-.371 1.995.241.639.792 1.329 1.557 2.067 2.292 5.668 5.633 14.299 9.192 21.818 9.192 7.522 0 16.152-3.559 21.819-9.193.579-.575 1.128-1.17 1.644-1.783.275-.327.681-.515 1.108-.512s.83.196 1.1.527c.585.713 1.212 1.402 1.88 2.066 5.668 5.634 14.299 9.193 21.818 9.193 7.522 0 16.152-3.559 21.819-9.193.624-.62 1.212-1.262 1.762-1.924.273-.329.677-.52 1.104-.52s.832.191 1.104.52c.551.662 1.14 1.304 1.763 1.924 5.667 5.634 14.298 9.193 21.819 9.193 19.586 0 29.167-12.296 29.167-25.834v-41.737c0-26.939-20.214-50.131-53.019-50.131-10.654 0-18.809 3.184-22.764 5.108-1.662.817-3.609.817-5.271 0-3.959-1.923-12.151-5.108-23.001-5.108-15.546 0-30.29 7.257-40.263 18.366-.356.405-.867.642-1.408.652-.54.01-1.059-.207-1.431-.599-10.668-11.048-25.623-17.929-42.155-17.929-15.069 0-28.828 5.717-39.224 15.098-.817.75-2.086.701-2.842-.11-3.851-4.11-16.086-14.988-39.276-14.988-32.315 0-59.183 26.296-58.606 58.606.015.814.041 1.619.079 2.415.04.832-.268 1.644-.848 2.241-.581.597-1.383.927-2.216.912-.476-.011-.956-.012-1.441-.003-7.611.138-13.115 2.546-16.994 6.262-.52.53-1.247.804-1.988.748-.741-.057-1.419-.437-1.853-1.04-4.597-5.88-12.477-10.575-25.38-12.372-.484-.068-.922-.32-1.108-.772-.187-.452-.093-.972.241-1.329 6.636-7.153 28.404-30.486 28.404-30.486 7.976-8.547 10.43-20.876 6.336-31.829s-14.032-18.648-25.661-19.868c.002 0-63.654-6.692-63.654-6.692-10.286-1.076-19.917 3.027-26.296 10.207-.316.368-.784.57-1.269.549-.485-.022-.933-.265-1.215-.66-5.751-7.772-15.061-12.725-25.479-12.494-9.436.208-17.79 4.633-23.297 11.435-.455.574-1.282.685-1.871.251-4.257-3.079-9.246-5.132-14.588-5.693-16.979-1.791-31.458 10.783-33.242 27.784 0-.002-5.816 55.309-5.816 55.309s-.548 3.124-4.197 2.762-3.218-4.281-3.218-4.281l5.827-54.074c1.769-16.855-10.695-33.504-27.625-34.207-27-1.123-32.801 18.972-34.017 26.293-.065.458-.39.836-.832.971-.443.134-.923 0-1.232-.344-12.345-13.517-29.532-22.697-49.148-24.604-42.075-4.09-79.631 26.814-83.722 68.891v.002c-1.978 20.382 3.787 40.572 17.109 56.125 30.748 35.896 69.244 27.949 78.752 25.444.768-.209 1.587.034 2.118.627 7.061 7.481 27.164 17.301 41.933 4.11 6.001-5.36 9.29-10.821 10.853-15.995.097-.343.36-.615.7-.723s.711-.038.988.186c8.615 6.838 20.13 11.77 35.398 12.939 31.328 2.397 49.721-11.062 60.043-26.195.18-.27.507-.402.824-.333s.559.326.609.646c1.673 9.873 8.161 25.301 30.974 24.804 10.071-.22 16.83-3.342 21.345-7.63.569-.559 1.441-.667 2.129-.264 3.642 2.09 7.734 3.452 12.061 3.918 2.789.355 53.658 6.425 68.298 7.142 9.843.483 19.969-2.52 26.494-10.175zm-328.035-131.907c-35.672-3.468-67.513 22.734-70.981 58.408-1.677 17.28 3.472 34.179 14.505 47.584 11.032 13.407 26.585 22.181 43.903 23.395 15.443 1.083 22.748-1.184 30.211-4.226.516-.211 1.109-.057 1.456.379 1.33 1.664 4.455 5.577 4.455 5.577 3.786 4.739 16.37 10.649 26.937 3.014 8.58-6.201 9.622-18.667 3.015-26.937 0 0-3.772-4.722-5.033-6.301-.241-.303-.262-.726-.052-1.05 5.527-8.582 8.975-18.412 9.99-28.863 3.465-35.672-22.734-67.513-58.406-70.98zm322.891 113.361c-1.034 9.846-8.957 17.353-21.066 17.058-14.814-.361-67.282-7.073-67.282-7.073-7.229-.759-13.405-5.542-15.951-12.35-2.545-6.809-1.02-14.471 3.939-19.786 0 0 38.514-41.283 45.288-48.543.191-.205.25-.501.152-.763s-.337-.447-.615-.476c-5.421-.57-23.94-2.519-23.94-2.519-10.527-1.105-18.163-10.536-17.057-21.063 1.105-10.529 10.535-18.16 21.066-17.059l63.655 6.692c7.229.758 13.406 5.542 15.951 12.35 2.545 6.809 1.02 14.472-3.939 19.786 0 0-38.699 41.481-45.336 48.595-.182.195-.238.476-.144.726.093.25.32.426.585.454 5.805.61 27.635 2.907 27.635 2.907 10.529 1.105 18.165 10.537 17.059 21.064zm12.112.141c.006 4.324 3.224 15.956 16.647 15.743 8.617-.136 15.629-7.01 15.629-15.628 0-8.619-7.023-16.086-15.629-15.63-13.09.692-16.656 7.973-16.647 15.515zm-169.429-33.869-.244 2.321c-1.475 14.051-14.326 49.84-59.182 46.407-23.902-1.829-36.564-14.93-42.864-28.666-.398-.88-.391-1.89.018-2.765 3.578-7.732 5.868-16.093 6.716-24.822 1.413-14.545-1.355-28.549-7.322-40.82-.349-.71-.49-1.504-.407-2.291.381-3.665 1.51-14.404 1.51-14.404 1.107-10.525 10.802-18.022 21.341-16.918 10.528 1.105 18.345 10.855 17.24 21.384l-5.893 56.067s-1.293 13.537 13.666 15.111 16.983-12.792 16.983-12.792l5.854-55.664c1.105-10.527 9.904-18.51 20.417-17.4 4.003.42 7.691 2.167 10.664 4.748.651.58.942 1.464.762 2.317-.437 2.206-.649 4.494-.598 6.838zm212.653 30.702c.158 1.319.765 2.543 1.718 3.468 10.498 10.037 24.677 14.133 33.388 14.133 11.692 0 22.892-4.325 31.544-12.18 5.792-5.258 6.249-14.753.991-20.545-5.26-5.793-14.219-6.228-20.012-.966-3.425 3.111-7.889 5.358-12.523 5.358-10.258 0-18.605-8.347-18.605-18.606 0-10.258 8.347-18.605 18.605-18.605 4.5 0 8.878 2.14 12.26 5.093 5.897 5.147 14.842 4.538 19.99-1.353 5.145-5.894 4.506-15.357-1.388-20.502-8.547-7.462-19.508-11.572-30.862-11.572-25.882 0-46.985 21.057-46.939 46.939.006 3.116.269 6.052.755 8.815.171.941.684 1.785 1.44 2.372 5.29 4.159 8.683 10.437 9.638 18.151zm168.511-60.597c-.838 1.083-.956 2.56-.301 3.763 4.364 8.207 6.846 17.567 6.846 27.496 0 13.534-4.612 26.011-12.344 35.94-.687.867-.741 2.077-.134 3.002 3.356 4.563 9.774 7.699 15.275 7.699 7.825 0 17.501-6.342 17.501-14.167v-36.439c0-5.302 1.657-10.122 7.598-10.122s6.77 4.82 6.77 10.122v36.737c0 7.824 9.677 14.167 17.5 14.167 7.825 0 17.501-6.343 17.501-14.167v-36.737c0-5.302 1.658-10.13 7.598-10.13 5.941 0 6.772 4.828 6.772 10.13v36.737c0 7.824 9.675 14.167 17.5 14.167 11.318 0 17.5-6.343 17.5-14.167v-41.737c0-20.85-15.961-38.464-41.352-38.464-11.552 0-20.136 4.959-23.747 7.475-1.122.8-2.63.794-3.746-.015-3.561-2.52-12.013-7.46-23.543-7.46-13.019 0-25.427 6.452-33.194 16.17zm-86.772.863c-.138-.582.023-1.194.429-1.634 8.57-9.169 20.768-14.909 34.28-14.909 25.882 0 46.941 21.057 46.941 46.939s-21.059 46.939-46.941 46.939c-13.386 0-25.482-5.633-34.04-14.652-.385-.411-.531-.992-.386-1.536 2.151-8.368.295-17.728-5.744-24.379-1.779-1.96-3.79-3.583-5.955-4.865-.496-.289-.801-.82-.802-1.394-.001-.235 0-.489.002-.736.009-.705.377-1.356.975-1.728 2.057-1.297 3.962-2.913 5.644-4.838 5.614-6.431 7.409-15.216 5.597-23.207zm-249.392 70.304c.452.695.328 1.617-.292 2.167-3 2.509-7.209 4.057-12.828 4.18-13.639.297-19.362-8.73-19.58-18.744l-1.975-90.478c-.23-10.583 8.161-19.348 18.744-19.58 10.598-.235 19.351 8.162 19.58 18.745 0 0 1.219 55.82 1.386 63.481.012.556-.196 1.093-.58 1.496-.464.487-1.029 1.08-1.029 1.08-7.977 8.55-10.43 20.876-6.336 31.829.772 2.064 1.751 4.013 2.91 5.824zm284.101-58.513c-10.258 0-18.605 8.346-18.605 18.605 0 10.258 8.347 18.605 18.605 18.605 10.261 0 18.607-8.347 18.607-18.605 0-10.259-8.346-18.605-18.607-18.605zm-501.277 26.973c.093.552-.045 1.119-.381 1.567-.337.448-.842.738-1.399.803-14.231 1.34-27.585-15.33-24.443-29.62 2.968-13.504 12.966-24.087 26.518-24.087.86 0 1.727.043 2.6.126 13.915 1.352 20.799 13.089 23.37 28.278.082.491-.099.989-.477 1.313-.378.325-.898.428-1.372.272-5.81-1.758-12.353-.719-17.454 3.358-5.584 4.46-8.007 11.404-6.962 17.99zm419.543-15.413c3.862 0 10.33 3.135 10.33 6.997 0 3.861-6.468 6.996-10.33 6.996-3.861 0-6.996-3.135-6.996-6.996 0-3.862 3.135-6.997 6.996-6.997zm81.874 0c3.861 0 6.996 3.135 6.996 6.997 0 3.861-3.135 6.996-6.996 6.996s-6.996-3.135-6.996-6.996c0-3.862 3.135-6.997 6.996-6.997zm-489.055-18.695c.076.223.054.467-.06.673-.114.205-.31.352-.54.405-4.279 1.036-8.412 2.992-12.082 5.925-4.172 3.332-7.248 7.527-9.174 12.127-.105.259-.335.446-.609.497s-.556-.043-.746-.247c-3.012-3.858-6.142-13.178 1.836-20.192 9.164-8.058 19.439-3.45 21.375.812zm221.415-10.165c-.132-.088-.303-.096-.443-.02-.139.077-.225.225-.221.384.068 3.194.327 15.043.454 20.857.012.545.351 1.029.859 1.226.509.197 1.086.068 1.462-.327 6.122-6.425 12.269-12.875 14.57-15.29.193-.202.263-.492.183-.761-.079-.268-.296-.473-.568-.538-3.346-.791-12.132-3.021-16.296-5.531z"/></svg>